<svg xmlns="http://www.w3.org/2000/svg">
<defs>
<font horiz-adv-x="594" ><font-face
    font-family="ptc75f"
    units-per-em="1000"
    panose-1="2 11 7 3 2 2 3 2 2 4"
    ascent="900"
    descent="-276"
    alphabetic="0" />
<missing-glyph horiz-adv-x="750" d="M50 700H700V0H50V700ZM570 620L375 403L180 620L130 570L327 350L130 130L180 80L375 297L570 80L620 130L422 350L620 570L570 620ZM129 27H137V39H141Q147 39 152 41T157 51Q157 59 152 61T140 63H129V27ZM141 57Q149 57
149 52Q149 47 147 47T140 46H137V57H141ZM189 63H158V57H170V27H177V57H189V63ZM222 37Q222 33 215 33Q208 33 206 35L203 28Q205 28 208 27T216 26Q230 26 230 38Q230 47 221 48T212 54Q212 57 218 57Q223 57 227 55L229 62Q223 64 218 64Q204 64 204 53Q204
48 207 46T213 43T219 40T222 37ZM237 47Q241 49 246 49Q251 49 251 45V43Q250 43 249 43T246 44Q234 44 234 34Q234 26 242 26Q248 26 251 31L253 27H259Q258 29 258 34V45Q258 55 248 55Q244 55 241 54T235 52L237 47ZM245 32Q241 32 241 36Q241 40 246 40Q248
40 249 40T251 39V36Q249 32 245 32ZM292 27V43Q292 55 283 55Q276 55 273 50L271 54H266V27H273V44Q275 48 279 48Q284 48 284 42V27H292ZM297 28Q301 26 307 26Q318 26 318 35Q318 40 316 41T310 44Q305 46 305 47Q305 49 308 49Q312 49 316 47L318 53Q314 55
308 55Q298 55 298 46Q298 41 301 40T306 37Q311 37 311 34Q311 32 308 32Q303 32 299 34L297 28ZM338 42Q338 21 358 21Q378 21 378 42Q378 62 358 62Q350 62 344 57T338 42ZM344 42Q344 57 358 57Q372 57 372 42Q372 27 358 27Q344 27 344 42ZM364 38Q362 37
360 37Q356 37 356 42Q356 46 360 46H363L365 50Q361 52 358 52Q349 52 349 42Q349 31 358 31Q363 31 365 33L364 38ZM399 27H407V39H411Q417 39 422 41T427 51Q427 59 422 61T410 63H399V27ZM411 57Q419 57 419 52Q419 47 417 47T410 46H407V57H411ZM432 47Q436
49 441 49Q446 49 446 45V43Q445 43 444 43T441 44Q428 44 428 34Q428 26 437 26Q443 26 446 31L448 27H454Q453 29 453 34V45Q453 55 443 55Q439 55 436 54T430 52L432 47ZM440 32Q436 32 436 36Q436 40 441 40Q443 40 444 40T446 39V36Q444 32 440 32ZM478 54Q477

<glyph unicode=" " glyph-name="space" horiz-adv-x="276" />
<glyph unicode="!" glyph-name="exclam" horiz-adv-x="314" d="M105 700H251V373L223 212H133L105 373V700ZM90 68Q90 105 114 126T177 147Q217 147 241 126T265 68Q265 33 241 11T177 -11Q138 -11 114 11T90 68Z" />
<glyph unicode="&quot;" glyph-name="quotedbl" horiz-adv-x="436" d="M99 700H223L185 482H99V700ZM258 700H382L344 482H258V700Z" />
<glyph unicode="#" glyph-name="numbersign" horiz-adv-x="591" d="M302 203H205L166 50H50L89 203H9L33 304H115L141 406H63L87 507H167L204 650H320L283 507H380L417 650H533L496 507H573L547 406H470L443 304H518L492 203H417L379 50H263L302 203ZM231 304H328L354
406H257L231 304Z" />
<glyph unicode="$" glyph-name="dollar" horiz-adv-x="591" d="M247 -13Q185 -11 139 -1T66 23L108 144Q128 133 163 123T247 109V297Q213 310 180 326T121 367T79 425T63 507Q63 598 112 647T247 709V800H360V712Q408 709 444 700T510 677L472 559Q455 567 426
575T360 589V415Q394 402 428 386T489 345T532 288T549 209Q549 113 499 61T360 -7V-100H247V-13ZM313 108Q362 113 383 134T405 191Q405 221 379 239T313 273V108ZM294 593Q268 592 251 587T224 572T211 549T207 520Q207 491 231 474T294 440V593Z" />
<glyph unicode="%" glyph-name="percent" horiz-adv-x="907" d="M53 542Q53 587 67 619T106 671T166 702T243 712Q284 712 319 703T379 674T419 621T433 542Q433 495 419 463T380 411T319 381T243 372Q201 372 167 381T107 410T67 463T53 542ZM180 542Q180 503
194 481T243 459Q277 459 291 478T305 542Q305 587 291 606T243 625Q209 625 195 606T180 542ZM494 170Q494 215 508 247T547 299T607 330T684 340Q725 340 760 331T820 302T860 249T874 170Q874 123 860 91T821 39T760 9T684 0Q642 0 608 9T548 38T508 91T494
170ZM621 170Q621 131 635 109T684 87Q718 87 732 106T746 170Q746 215 732 234T684 253Q650 253 636 234T621 170ZM732 718L811 641L186 -14L110 63L732 718Z" />
<glyph unicode="&amp;" glyph-name="ampersand" horiz-adv-x="885" d="M100 195Q100 232 113 266T151 331T208 387T283 434Q256 466 239 499T221 571Q221 596 231 622T263 668T321 701T409 714Q459 714 494 703T550 674T581 633T591 584Q591 544 561 500T454 415Q474
387 492 363T530 317T570 274T614 232Q638 257 659 295T695 373L797 315Q789 298 778 277T754 235T728 195T702 162Q735 134 760 118T813 88L737 -14Q709 -2 677 20T615 69Q575 36 516 11T370 -14Q315 -14 266 0T180 42T122 107T100 195ZM528 151Q473 204 428 255T347
353Q294 316 267 282T240 207Q240 158 281 131T390 103Q433 103 470 117T528 151ZM361 564Q361 523 401 477Q443 501 462 522T481 562Q481 587 467 600T419 613Q390 613 376 600T361 564Z" />
<glyph unicode="&apos;" glyph-name="quotesingle" horiz-adv-x="277" d="M99 700H223L185 482H99V700Z" />
<glyph unicode="(" glyph-name="parenleft" horiz-adv-x="356" d="M247 -220Q197 -172 163 -115T107 3T76 125T66 243Q66 298 75 359T107 481T164 602T251 712L341 651Q303 605 277 555T236 452T213 347T206 243Q206 195 214 142T238 37T281 -66T343 -158L247 -220Z" />
<glyph unicode=")" glyph-name="parenright" horiz-adv-x="354" d="M107 712Q157 664 191 607T247 489T278 367T288 249Q288 194 279 133T248 11T191 -110T104 -220L14 -158Q54 -108 80 -58T121 44T142 146T148 249Q148 297 141 349T117 454T75 555T13 648L107 712Z" />
<glyph unicode="*" glyph-name="asterisk" horiz-adv-x="408" d="M156 735L186 688L202 627L218 684L248 735L315 698L283 644L232 600L302 617H362V540H304L239 558L292 510L319 465L251 427L222 475L201 540L187 481L156 429L88 468L120 520L168 557L108 540H46V618H109L172
600L118 645L88 696L156 735Z" />
<glyph unicode="+" glyph-name="plus" horiz-adv-x="570" d="M47 397H223V577H347V397H523V277H347V96H223V277H47V397Z" />
<glyph unicode="," glyph-name="comma" horiz-adv-x="247" d="M46 67Q46 101 70 121T130 142Q175 142 201 113T227 39Q227 -8 212 -41T175 -95T127 -129T81 -148L41 -90Q69 -81 89 -57T114 -4Q90 -7 68 10T46 67Z" />
<glyph unicode="-" glyph-name="hyphen" horiz-adv-x="391" d="M59 350H332V226H59V350Z" />
<glyph unicode="." glyph-name="period" horiz-adv-x="241" d="M46 68Q46 105 70 126T133 147Q173 147 197 126T221 68Q221 33 197 11T133 -11Q94 -11 70 11T46 68Z" />
<glyph unicode="/" glyph-name="slash" horiz-adv-x="443" d="M362 712L468 662L80 -140L-24 -86L362 712Z" />
<glyph unicode="0" glyph-name="zero" horiz-adv-x="591" d="M30 351Q30 530 98 622T295 714Q432 714 496 624T561 351Q561 173 492 80T295 -14Q227 -14 177 11T95 84T46 199T30 351ZM174 351Q174 236 202 170T295 103Q361 103 389 163T417 351Q417 408 411 453T390
531T353 580T295 597Q230 597 202 535T174 351Z" />
<glyph unicode="1" glyph-name="one" horiz-adv-x="591" d="M96 117H246V502L263 571L211 511L113 447L57 529L302 712H381V117H528V0H96V117Z" />
<glyph unicode="2" glyph-name="two" horiz-adv-x="591" d="M504 527Q504 477 484 426T434 327T366 232T292 147L235 106V101L312 117H519V0H62V70Q88 96 120 128T186 198T250 274T306 353T345 429T360 499Q360 537 337 563T258 590Q223 590 187 576T125 538L67
638Q110 670 163 692T290 714Q336 714 375 702T443 667T488 609T504 527Z" />
<glyph unicode="3" glyph-name="three" horiz-adv-x="591" d="M251 103Q285 103 310 111T353 135T379 169T388 210Q388 264 352 290T234 316H155V390L284 548L347 594L261 583H80V700H496V625L346 441L297 414V409L343 415Q380 412 413 398T472 360T513 301T528
218Q528 159 507 116T448 43T361 0T253 -14Q229 -14 204 -12T155 -6T110 4T72 18L110 134Q138 121 173 112T251 103Z" />
<glyph unicode="4" glyph-name="four" horiz-adv-x="591" d="M588 193H469V0H338V193H9V271L353 705H469V302H588V193ZM338 446L346 527H342L306 459L195 330L139 293L209 302H338V446Z" />
<glyph unicode="5" glyph-name="five" horiz-adv-x="591" d="M227 110Q299 110 337 138T376 221Q376 279 331 306T203 333L116 329V700H490V570H238V446L283 450Q336 448 379 432T452 386T499 316T516 225Q516 166 494 121T434 46T343 1T229 -14Q180 -14 136 -6T61
15L99 131Q124 122 153 116T227 110Z" />
<glyph unicode="6" glyph-name="six" horiz-adv-x="591" d="M551 217Q551 170 533 129T483 55T405 5T303 -14Q247 -14 200 3T118 53T64 136T44 252Q44 349 75 429T158 569T281 666T430 714L459 605Q405 597 360 575T279 521T219 451T185 372Q208 397 241 415T327
434Q377 434 418 419T489 376T535 308T551 217ZM415 211Q415 317 296 317Q252 317 222 300T180 258Q178 247 178 242T178 229Q178 206 185 184T208 143T246 114T300 103Q325 103 346 111T382 135T406 169T415 211Z" />
<glyph unicode="7" glyph-name="seven" horiz-adv-x="591" d="M101 0L347 529L395 578L329 568H52V700H543V661L239 0H101Z" />
<glyph unicode="8" glyph-name="eight" horiz-adv-x="591" d="M53 173Q53 208 63 235T91 285T133 324T186 357Q132 388 103 428T73 528Q73 566 88 600T133 659T205 699T302 714Q351 714 391 702T459 667T503 613T519 544Q519 485 492 445T407 370Q471 335 505
294T539 188Q539 143 521 106T471 43T393 1T292 -14Q238 -14 194 -1T118 38T70 97T53 173ZM405 187Q405 209 393 227T361 260T317 288T269 312Q219 286 201 255T182 196Q182 157 211 130T295 103Q345 103 375 124T405 187ZM207 526Q207 502 217 484T245 453T283
428T328 407Q391 457 391 516Q391 556 364 576T299 597Q251 597 229 576T207 526Z" />
<glyph unicode="9" glyph-name="nine" horiz-adv-x="591" d="M34 480Q34 531 51 573T100 647T178 696T283 714Q407 714 477 646T547 449Q547 333 515 248T429 107T305 21T156 -14L126 93Q186 100 232 119T312 167T367 232T398 310Q372 284 342 274T261 264Q219
264 179 277T106 317T54 384T34 480ZM170 487Q170 432 205 404T293 376Q338 376 366 389T410 421Q411 432 412 441T413 458Q413 484 406 510T382 556T341 589T282 602Q229 602 200 572T170 487Z" />
<glyph unicode=":" glyph-name="colon" horiz-adv-x="293" d="M102 426Q102 463 126 484T189 505Q229 505 253 484T277 426Q277 391 253 369T189 347Q150 347 126 369T102 426ZM102 68Q102 105 126 126T189 147Q229 147 253 126T277 68Q277 33 253 11T189 -11Q150
-11 126 11T102 68Z" />
<glyph unicode=";" glyph-name="semicolon" horiz-adv-x="281" d="M87 67Q87 101 111 121T171 142Q216 142 242 113T268 39Q268 -8 253 -41T216 -95T168 -129T122 -148L82 -90Q110 -81 130 -57T155 -4Q131 -7 109 10T87 67ZM86 426Q86 463 110 484T173 505Q213
505 237 484T261 426Q261 391 237 369T173 347Q134 347 110 369T86 426Z" />
<glyph unicode="&lt;" glyph-name="less" horiz-adv-x="571" d="M42 283V357L466 593L524 495L283 357L184 322L282 291L529 155L472 57L42 283Z" />
<glyph unicode="=" glyph-name="equal" horiz-adv-x="571" d="M47 494H524V374H47V494ZM47 300H524V180H47V300Z" />
<glyph unicode="&gt;" glyph-name="greater" horiz-adv-x="571" d="M529 367V293L103 56L47 156L288 293L387 329L289 359L42 496L98 594L529 367Z" />
<glyph unicode="?" glyph-name="question" horiz-adv-x="491" d="M146 212Q140 268 151 306T181 370T225 413T270 447T306 480T321 523Q321 558 301 577T226 597Q209 597 189 593T148 582T110 566T78 547L24 651Q65 678 118 696T249 714Q350 714 408 668T467 544Q467
490 453 457T416 401T368 362T320 327T283 282T268 212H146ZM125 68Q125 105 149 126T212 147Q252 147 276 126T300 68Q300 33 276 11T212 -11Q173 -11 149 11T125 68Z" />
<glyph unicode="@" glyph-name="at" horiz-adv-x="1147" d="M736 483H812L759 215Q757 204 756 195T754 177Q754 153 764 143T795 132Q823 132 850 143T898 178T933 238T946 326Q946 403 919 457T844 547T733 598T597 614Q513 614 441 585T315 506T231 388T201
241Q201 163 226 100T299 -8T420 -77T588 -102Q618 -102 657 -95T730 -73L763 -178Q718 -198 673 -206T567 -215Q460 -215 371 -185T217 -97T116 44T80 236Q80 347 121 437T234 592T400 692T600 727Q700 727 785 699T932 619T1030 492T1066 326Q1066 263 1042 208T975
111T876 46T754 22Q726 22 703 27T664 46T641 82T637 138H633Q616 115 597 94T556 57T506 32T445 22Q419 22 396 32T355 62T328 109T318 169Q318 228 339 285T398 388T484 461T589 489Q627 489 653 479T702 450L736 483ZM667 356Q653 368 638 373T599 379Q566 379
539 363T491 321T460 265T449 206Q449 174 463 153T515 132Q531 132 548 140T581 163T613 197T640 238L667 356Z" />
<glyph unicode="A" glyph-name="A" horiz-adv-x="658" d="M441 149H205L148 0H0L274 705H383L658 0H501L441 149ZM246 266H406L352 412L328 523H323L299 411L246 266Z" />
<glyph unicode="B" glyph-name="B" horiz-adv-x="641" d="M577 535Q577 509 570 484T546 436T504 398T441 375V369Q474 366 503 354T553 321T587 269T600 197Q600 142 575 103T508 39T414 2T306 -10Q288 -10 259 -10T196 -9T128 -4T65 5V695Q86 698 112 701T169
706T232 709T296 710Q348 710 398 703T488 676T552 622T577 535ZM304 110Q332 110 357 115T402 131T433 160T445 204Q445 236 431 255T395 283T345 295T289 298H207V116Q213 114 224 113T250 112T278 111T304 110ZM257 408Q272 408 292 408T327 411Q369 424 398
446T427 508Q427 534 416 550T387 575T345 587T298 590Q269 590 245 589T207 586V408H257Z" />
<glyph unicode="C" glyph-name="C" horiz-adv-x="607" d="M579 30Q546 7 492 -3T381 -14Q314 -14 253 6T144 70T68 183T40 350Q40 452 72 521T154 633T265 695T385 714Q450 714 494 706T568 687L539 563Q514 574 481 579T396 584Q351 584 315 570T252 526T212
453T197 350Q197 298 210 255T249 181T315 133T408 116Q457 116 490 125T550 148L579 30Z" />
<glyph unicode="D" glyph-name="D" horiz-adv-x="702" d="M65 700Q87 703 115 705T174 708T234 709T286 710Q386 710 457 684T574 610T641 498T662 356Q662 286 642 220T575 103T455 20T273 -11Q256 -11 227 -10T166 -8T107 -5T65 -1V700ZM297 580Q274 580 250
580T213 577V123Q218 122 228 122T250 121T272 120T288 119Q352 119 394 139T460 192T495 267T505 354Q505 391 496 431T464 504T400 558T297 580Z" />
<glyph unicode="E" glyph-name="E" horiz-adv-x="566" d="M65 700H516V570H213V418H488V288H213V130H521V0H65V700Z" />
<glyph unicode="F" glyph-name="F" horiz-adv-x="551" d="M65 700H516V570H213V407H492V277H213V0H65V700Z" />
<glyph unicode="G" glyph-name="G" horiz-adv-x="661" d="M331 368H617V54Q594 36 567 24T509 3T446 -10T383 -14Q311 -14 249 7T140 72T67 186T40 350Q40 449 72 518T155 631T270 694T397 714Q462 714 511 705T589 686L558 563Q531 572 497 578T412 584Q365 584
326 572T258 531T213 458T197 349Q197 287 213 243T256 171T320 129T396 116Q423 116 450 122T497 141V262L331 278V368Z" />
<glyph unicode="H" glyph-name="H" horiz-adv-x="706" d="M493 289H213V0H65V700H213V419H493V700H641V0H493V289Z" />
<glyph unicode="I" glyph-name="I" horiz-adv-x="388" d="M120 620H40V700H348V620H268V80H348V0H40V80H120V620Z" />
<glyph unicode="J" glyph-name="J" horiz-adv-x="362" d="M143 700H291V190Q291 153 281 117T250 52T193 5T108 -13Q76 -13 40 -7T-25 12L7 130Q36 117 71 117Q94 117 108 125T130 149T140 186T143 231V700Z" />
<glyph unicode="K" glyph-name="K" horiz-adv-x="671" d="M252 296H213V0H65V700H213V392L248 407L458 700H627L405 407L347 369L407 329L661 0H478L252 296Z" />
<glyph unicode="L" glyph-name="L" horiz-adv-x="557" d="M547 0H65V700H213V130H547V0Z" />
<glyph unicode="M" glyph-name="M" horiz-adv-x="868" d="M655 351L671 496H665L617 386L455 125H409L237 387L190 495H184L205 352V0H65V700H199L401 377L439 300H444L477 379L670 700H803V0H655V351Z" />
<glyph unicode="N" glyph-name="N" horiz-adv-x="713" d="M254 365L194 470H189L205 364V0H65V705H172L461 332L518 230H524L508 333V700H648V-5H541L254 365Z" />
<glyph unicode="O" glyph-name="O" horiz-adv-x="727" d="M40 350Q40 436 62 504T125 618T227 689T363 714Q444 714 504 688T605 613T666 498T687 350Q687 264 665 196T600 82T498 11T363 -14Q282 -14 222 12T121 87T60 202T40 350ZM197 350Q197 298 207 255T237
181T288 133T363 116Q442 116 486 170T530 350Q530 400 521 443T492 517T440 566T363 584Q285 584 241 528T197 350Z" />
<glyph unicode="P" glyph-name="P" horiz-adv-x="620" d="M65 693Q110 701 165 705T275 710Q331 710 388 702T490 668T565 597T594 476Q594 410 569 364T503 288T408 246T299 232Q294 232 282 232T257 232T231 234T213 236V0H65V693ZM285 580Q264 580 245 579T213
575V367Q217 366 226 365T245 364T263 363T277 362Q306 362 335 366T386 383T423 418T437 479Q437 511 424 530T390 561T341 576T285 580Z" />
<glyph unicode="Q" glyph-name="Q" horiz-adv-x="727" d="M762 -212Q735 -219 709 -221T657 -224Q602 -224 550 -214T449 -192T355 -169T269 -159Q242 -159 218 -165V-35Q249 -29 280 -29Q325 -29 370 -39T463 -60T559 -82T663 -92Q713 -92 762 -82V-212ZM40 350Q40
436 62 504T125 618T227 689T363 714Q444 714 504 688T605 613T666 498T687 350Q687 264 665 196T600 82T498 11T363 -14Q282 -14 222 12T121 87T60 202T40 350ZM197 350Q197 298 207 255T237 181T288 133T363 116Q442 116 486 170T530 350Q530 400 521 443T492
517T440 566T363 584Q285 584 241 528T197 350Z" />
<glyph unicode="R" glyph-name="R" horiz-adv-x="652" d="M65 693Q89 697 117 700T175 706T231 709T282 710Q335 710 386 701T478 670T544 610T569 513Q569 427 527 372T409 296L462 265L637 0H465L291 271L213 283V0H65V693ZM292 580Q269 580 248 580T213 576V383H276Q339
383 375 407T412 490Q412 534 381 557T292 580Z" />
<glyph unicode="S" glyph-name="S" horiz-adv-x="575" d="M393 192Q393 223 367 241T303 274T219 304T136 344T71 407T45 506Q45 558 63 597T115 662T196 701T301 714Q367 714 426 703T524 670L477 546Q465 553 447 560T404 573T353 582T298 586Q248 586 221 569T193
520Q193 489 219 471T283 437T367 406T450 366T515 304T541 209Q541 151 521 109T465 40T377 -1T265 -14Q224 -14 188 -10T120 1T66 15T28 30L77 155Q88 149 107 142T151 129T202 118T258 114Q324 114 358 133T393 192Z" />
<glyph unicode="T" glyph-name="T" horiz-adv-x="616" d="M604 570H382V0H234V570H12V700H604V570Z" />
<glyph unicode="U" glyph-name="U" horiz-adv-x="679" d="M478 700H618V251Q618 183 599 133T544 51T459 4T350 -12Q209 -12 135 49T61 234V700H209V261Q209 181 244 150T348 118Q414 118 446 151T478 261V700Z" />
<glyph unicode="V" glyph-name="V" horiz-adv-x="654" d="M315 296L335 177H340L362 297L508 700H664L381 -5H275L-10 700H162L315 296Z" />
<glyph unicode="W" glyph-name="W" horiz-adv-x="938" d="M263 315L277 191H281L297 317L430 700H526L657 315L673 191H678L693 317L786 700H938L728 -5H628L492 376L474 484H467L449 375L314 -5H209L0 700H162L263 315Z" />
<glyph unicode="X" glyph-name="X" horiz-adv-x="685" d="M244 356L32 700H211L328 501L355 432L381 501L503 700H664L444 363L675 0H498L364 213L334 285L305 213L171 0H10L244 356Z" />
<glyph unicode="Y" glyph-name="Y" horiz-adv-x="644" d="M248 258L-2 700H174L314 443L330 368H335L352 445L487 700H646L396 259V0H248V258Z" />
<glyph unicode="Z" glyph-name="Z" horiz-adv-x="584" d="M28 130L349 529L407 570H28V700H556V570L233 168L177 130H556V0H28V130Z" />
<glyph unicode="[" glyph-name="bracketleft" horiz-adv-x="350" d="M65 700H319V583H199V-113H319V-230H65V700Z" />
<glyph unicode="\" glyph-name="backslash" horiz-adv-x="460" d="M478 -88L368 -140L-24 660L84 711L478 -88Z" />
<glyph unicode="]" glyph-name="bracketright" horiz-adv-x="350" d="M285 -230H31V-113H151V583H31V700H285V-230Z" />
<glyph unicode="^" glyph-name="asciicircum" horiz-adv-x="535" d="M236 705H311L512 411H370L292 530L269 600L242 529L158 411H23L236 705Z" />
<glyph unicode="_" glyph-name="underscore" horiz-adv-x="483" d="M0 -113H483V-226H0V-113Z" />
<glyph unicode="`" glyph-name="grave" horiz-adv-x="350" d="M282 571H208L68 699V729H215L282 571Z" />
<glyph unicode="a" glyph-name="a" horiz-adv-x="579" d="M67 489Q112 509 177 522T313 535Q368 535 405 522T465 485T496 426T506 349Q506 298 502 248T498 142Q498 104 503 68T519 -1H405L382 77H370Q344 42 304 17T201 -8Q163 -8 132 3T78 34T43 83T30 144Q30
233 89 278T270 324Q298 324 326 320T365 313Q368 334 368 349Q368 387 349 405T278 423Q230 423 185 412T104 383L67 489ZM250 104Q297 104 325 126T366 172V232Q361 234 351 236T328 240T303 243T280 244Q226 244 200 225T174 176Q174 140 194 122T250 104Z"
/>
<glyph unicode="b" glyph-name="b" horiz-adv-x="619" d="M72 700H212V480H224Q248 507 285 522T368 538Q470 538 523 472T577 277Q577 208 558 154T502 63T414 7T297 -13Q222 -13 163 -3T72 21V700ZM212 119Q232 109 254 107T303 104Q433 104 433 274Q433 346
406 383T326 421Q281 421 254 400T212 338V119Z" />
<glyph unicode="c" glyph-name="c" horiz-adv-x="500" d="M468 32Q434 9 387 -3T288 -15Q220 -15 174 5T98 62T55 149T42 262Q42 393 106 466T294 540Q354 540 392 531T461 506L427 394Q401 405 376 410T316 416Q253 416 220 380T186 262Q186 230 194 203T219
154T262 121T323 109Q365 109 389 116T436 137L468 32Z" />
<glyph unicode="d" glyph-name="d" horiz-adv-x="628" d="M550 184Q550 142 551 97T560 -1H463L443 72H430Q407 32 365 9T263 -15Q158 -15 100 50T42 253Q42 319 58 372T107 462T188 519T299 539Q334 539 359 534T410 520V700H550V184ZM299 102Q346 102 372 123T410
185V395Q392 409 372 415T318 422Q251 422 219 383T186 249Q186 183 213 143T299 102Z" />
<glyph unicode="e" glyph-name="e" d="M521 48Q487 22 429 4T303 -15Q168 -15 105 59T42 262Q42 399 113 469T313 540Q355 540 396 530T469 495T520 429T540 326Q540 305 538 280T529 228H179Q184 160 218 128T331 95Q378 95 415 108T473 136L521 48ZM311 430Q249
430 219 397T184 311H410Q414 366 390 398T311 430Z" />
<glyph unicode="f" glyph-name="f" horiz-adv-x="370" d="M16 525H95V558Q95 604 109 633T147 680T202 705T268 712Q316 712 351 708T418 693L392 584Q367 592 347 595T304 598Q261 598 248 582T235 525H363V408H235V0H95V408H16V525Z" />
<glyph unicode="g" glyph-name="g" horiz-adv-x="619" d="M547 20Q547 -96 481 -151T294 -206Q216 -206 169 -196T95 -172Q108 -132 114 -109T124 -73T128 -58T129 -55Q153 -67 187 -79T270 -92Q311 -92 338 -84T381 -61T403 -23T410 26V65H398Q378 36 343 24T256
12Q149 12 96 71T42 261Q42 399 112 469T322 539Q395 539 452 530T547 508V20ZM289 121Q335 121 364 138T407 180V406Q370 422 313 422Q252 422 219 386T186 267Q186 191 214 156T289 121Z" />
<glyph unicode="h" glyph-name="h" horiz-adv-x="638" d="M426 0V289Q426 357 406 386T330 416Q290 416 257 391T212 323V0H72V700H212V461H224Q251 496 291 518T394 540Q437 540 469 530T522 494T555 426T566 320V0H426Z" />
<glyph unicode="i" glyph-name="i" horiz-adv-x="317" d="M89 525H229V0H89V525ZM68 893Q68 925 91 946T156 968Q199 968 224 946T249 893Q249 864 224 843T156 822Q114 822 91 843T68 893Z" />
<glyph unicode="j" glyph-name="j" horiz-adv-x="317" d="M91 525H231V-24Q231 -119 192 -170T66 -221Q32 -221 -6 -214V-97Q25 -100 44 -93T73 -71T87 -34T91 17V525ZM69 893Q69 925 92 946T157 968Q200 968 225 946T250 893Q250 864 225 843T157 822Q115 822
92 843T69 893Z" />
<glyph unicode="k" glyph-name="k" horiz-adv-x="564" d="M260 218H212V0H72V700H212V298L256 317L387 525H541L407 334H408L344 288L411 244H410L564 0H402L260 218Z" />
<glyph unicode="l" glyph-name="l" horiz-adv-x="337" d="M215 184Q215 108 264 108Q278 108 290 110T320 119L337 10Q317 1 281 -7T205 -16Q142 -16 109 12T75 104V700H215V184Z" />
<glyph unicode="m" glyph-name="m" horiz-adv-x="940" d="M400 0V274Q400 350 384 383T318 416Q276 416 251 396T212 342V0H72V525H180L196 452H209Q222 469 239 485T276 513T322 532T380 540Q433 540 468 517T525 438Q554 486 595 513T692 540Q740 540 773 529T828
491T858 418T868 303V0H728V281Q728 314 725 339T713 381T688 407T644 416Q602 416 577 395T540 335V0H400Z" />
<glyph unicode="n" glyph-name="n" horiz-adv-x="638" d="M426 0V288Q426 356 405 386T331 416Q286 416 255 392T211 329Q211 247 211 165T212 0H72V525H182L197 450H212Q238 487 281 513T393 540Q435 540 467 530T521 494T554 425T566 317V0H426Z" />
<glyph unicode="o" glyph-name="o" horiz-adv-x="616" d="M42 262Q42 392 111 466T308 540Q375 540 425 519T508 461T557 373T574 262Q574 198 556 147T504 59T421 4T308 -15Q240 -15 190 6T107 64T58 152T42 262ZM186 262Q186 229 193 200T214 150T252 115T308
102Q430 102 430 262Q430 297 424 326T403 377T365 411T308 423Q251 423 219 385T186 262Z" />
<glyph unicode="p" glyph-name="p" horiz-adv-x="623" d="M72 525H172L189 460H201Q232 500 273 520T369 540Q475 540 528 477T581 275Q581 209 564 156T514 64T433 5T321 -16Q287 -16 262 -10T212 8V-199H72V525ZM326 423Q278 423 252 402T212 335V131Q229 117
250 109T303 101Q371 101 404 143T437 279Q437 346 412 384T326 423Z" />
<glyph unicode="q" glyph-name="q" horiz-adv-x="619" d="M547 -199H407V50H395Q375 19 343 2T257 -15Q152 -15 97 51T42 251Q42 392 118 465T337 539Q367 539 397 536T455 529T506 519T547 507V-199ZM298 102Q345 102 370 122T407 181V407Q389 415 366 418T314
422Q248 422 217 377T186 257Q186 182 215 142T298 102Z" />
<glyph unicode="r" glyph-name="r" horiz-adv-x="406" d="M382 397Q352 407 322 407Q278 407 250 386T212 333V0H72V525H182L197 452H210Q230 493 263 515T340 537Q367 537 402 526L382 397Z" />
<glyph unicode="s" glyph-name="s" horiz-adv-x="483" d="M71 136Q85 129 103 122T143 109T187 99T233 95Q268 95 287 106T307 147Q307 171 281 182T217 205Q189 213 159 224T103 253T61 302T44 378Q44 457 93 498T234 540Q294 540 346 530T431 505L402 399Q376
409 336 419T253 430Q218 430 201 420T184 383Q184 360 210 349T275 326Q303 318 333 308T389 279T430 233T447 161Q447 77 393 31T229 -15Q170 -15 119 -5T36 26L71 136Z" />
<glyph unicode="t" glyph-name="t" horiz-adv-x="404" d="M8 525H88V597L228 634V525H369V408H228V226Q228 163 240 136T290 108Q313 108 329 111T363 123L392 18Q360 4 319 -6T238 -16Q160 -16 124 22T88 146V408H8V525Z" />
<glyph unicode="u" glyph-name="u" horiz-adv-x="642" d="M212 525V234Q212 169 230 139T299 109Q343 109 373 132T417 190V525H557V160Q557 118 561 76T574 0H471L444 82H433Q407 40 359 13T249 -15Q206 -15 173 -4T118 32T84 100T72 204V525H212Z" />
<glyph unicode="v" glyph-name="v" horiz-adv-x="546" d="M257 253L278 172H294L309 255L407 525H558L318 -5H238L-12 525H151L257 253Z" />
<glyph unicode="w" glyph-name="w" horiz-adv-x="825" d="M477 525Q504 459 530 392T583 259L603 171H618L633 260Q651 327 670 392T707 525H835L656 -5H555Q528 64 497 139T439 284L425 352H407Q404 335 400 318T393 283L284 -5H178L-6 525H146L230 266L244 169H259L279
267L374 525H477Z" />
<glyph unicode="x" glyph-name="x" horiz-adv-x="587" d="M192 269L20 525H190L261 423L260 424L301 331L341 424L340 423L416 525H570L397 273L581 0H415L330 118L331 117L289 209L245 117L246 118L160 0H6L192 269Z" />
<glyph unicode="y" glyph-name="y" horiz-adv-x="541" d="M264 234L286 150H296L315 234L404 525H547L373 50Q351 -9 332 -56T289 -136T238 -186T170 -204Q144 -204 121 -200T80 -186L109 -78Q124 -83 140 -83Q154 -83 167 -80T191 -69T211 -45T228 -3L-12 525H157L264
234Z" />
<glyph unicode="z" glyph-name="z" horiz-adv-x="526" d="M42 119L263 357H262L327 408H42V525H484V406L265 165H266L200 117H484V0H42V119Z" />
<glyph unicode="{" glyph-name="braceleft" horiz-adv-x="403" d="M135 93Q135 144 113 163T48 182V288Q90 288 112 308T135 373V576Q135 630 162 665T250 701H380V584H325Q296 584 283 570T269 523V336Q269 292 246 270T193 242V232Q222 228 245 202T269 134V-52Q269
-83 282 -98T326 -113H380V-230H250Q194 -230 165 -198T135 -106V93Z" />
<glyph unicode="|" glyph-name="bar" horiz-adv-x="246" d="M65 700H181V-130H65V700Z" />
<glyph unicode="}" glyph-name="braceright" horiz-adv-x="403" d="M268 378Q268 327 290 308T355 289V183Q313 183 291 163T268 98V-104Q268 -158 239 -194T149 -230H23V-113H77Q106 -113 120 -99T134 -52V135Q134 179 157 201T210 229V239Q181 243 158 269T134
337V523Q134 554 121 569T76 584H23V701H152Q209 701 238 668T268 576V378Z" />
<glyph unicode="~" glyph-name="asciitilde" horiz-adv-x="571" d="M30 380Q81 418 121 433T197 448Q228 448 255 440T307 421T356 403T406 394Q426 394 446 400T490 424L541 316Q502 288 470 278T410 267Q380 267 354 276T303 296T253 317T200 326Q174 326 144
315T77 275L30 380Z" />
<glyph unicode="&#xa0;" glyph-name="uni00A0" horiz-adv-x="276" />
<glyph unicode="&#xa1;" glyph-name="exclamdown" horiz-adv-x="313" d="M205 -200H59V127L87 288H176L205 127V-200ZM47 432Q47 469 71 490T134 511Q174 511 198 490T222 432Q222 397 198 375T134 353Q95 353 71 375T47 432Z" />
<glyph unicode="&#xa2;" glyph-name="cent" horiz-adv-x="591" d="M406 113Q431 117 450 124T484 139L518 32Q498 19 471 10T411 -6V-100H281V-11Q225 -4 187 17T124 72T89 151T78 250Q78 362 129 428T281 510V600H411V510Q442 506 466 499T510 483L476 368Q460
374 443 379T406 386V113ZM305 384Q261 374 240 342T218 250Q218 205 238 169T305 118V384Z" />
<glyph unicode="&#xa3;" glyph-name="sterling" horiz-adv-x="591" d="M44 396H118Q104 419 94 447T84 517Q84 566 102 603T152 665T228 702T326 714Q392 714 446 702T541 672L495 545Q475 556 436 569T343 582Q291 582 262 561T232 497Q232 465 246 442T277 396H427V282H326Q326
277 326 271T327 259Q327 228 316 196T281 141L240 113V108L307 124H557V0H44V124H46Q115 126 149 159T183 240Q183 260 178 282H44V396Z" />
<glyph unicode="&#xa4;" glyph-name="currency" horiz-adv-x="591" d="M93 625L171 548L189 511Q209 526 236 533T294 540Q323 540 351 533T400 511L419 548L497 625L577 541L500 463L463 448Q477 427 483 401T489 345Q489 315 483 289T463 244L500 228L577 150L497
68L419 145L402 181Q383 167 353 160T294 152Q264 152 237 159T189 181L171 145L93 68L13 150L90 228L126 246Q115 266 108 290T101 345Q101 374 108 399T128 447L90 464L13 542L93 625ZM215 346Q215 310 237 286T295 262Q331 262 353 286T375 346Q375 381 353
405T295 430Q260 430 238 406T215 346Z" />
<glyph unicode="&#xa5;" glyph-name="yen" horiz-adv-x="591" d="M80 338H177L-28 700H148L288 443L304 368H309L326 445L461 700H620L415 338H512V244H370V186H512V92H370V0H222V92H80V186H222V244H80V338Z" />
<glyph unicode="&#xa6;" glyph-name="brokenbar" horiz-adv-x="246" d="M65 213H181V-130H65V213ZM181 357H65V700H181V357Z" />
<glyph unicode="&#xa7;" glyph-name="section" horiz-adv-x="576" d="M53 353Q53 384 69 413T113 466L158 479Q129 495 112 520T94 585Q94 642 141 678T283 714Q348 714 403 704T488 680L453 567Q429 579 388 588T306 597Q266 597 250 587T234 561Q234 543 255
534T309 518T378 501T447 474T500 426T522 347Q522 316 507 288T463 236L414 222Q443 206 462 181T482 115Q482 52 430 19T290 -14Q215 -14 165 1T84 33L122 139Q147 127 182 115T267 103Q307 103 324 111T342 140Q342 159 321 168T267 185T198 202T128 228T75
275T53 353ZM382 345Q382 363 373 375T347 396T304 412T246 429Q225 417 209 398T193 355Q193 338 202 326T228 305T269 289T326 273Q350 285 366 304T382 345Z" />
<glyph unicode="&#xa8;" glyph-name="dieresis" horiz-adv-x="535" d="M67 657Q67 692 88 713T144 734Q178 734 198 713T219 657Q219 627 199 606T144 585Q110 585 89 606T67 657ZM320 657Q320 692 340 713T395 734Q430 734 450 713T471 657Q471 627 451 606T395
585Q361 585 341 606T320 657Z" />
<glyph unicode="&#xa9;" glyph-name="copyright" horiz-adv-x="890" d="M58 286Q58 374 88 445T170 567T293 645T445 672Q526 672 596 645T719 568T801 446T831 286Q831 197 801 126T719 4T597 -73T445 -101Q356 -101 284 -74T162 4T85 125T58 286ZM165 286Q165
220 186 167T244 78T333 21T445 1Q506 1 557 21T645 77T704 167T725 286Q725 352 704 404T646 493T557 550T445 570Q384 570 333 550T245 494T186 405T165 286ZM579 117Q556 101 520 92T442 83Q356 83 311 137T265 286Q265 383 313 436T442 489Q482 489 512 480T572
455L536 359Q518 368 503 371T473 374Q444 374 427 355T409 286Q409 197 481 197Q500 197 515 200T547 213L579 117Z" />
<glyph unicode="&#xaa;" glyph-name="ordfeminine" horiz-adv-x="479" d="M78 672Q107 687 158 697T274 708Q315 708 342 701T386 680T410 645T417 595Q417 561 416 528T414 464Q414 441 415 420T422 380H309L296 427H292Q278 410 252 393T179 376Q124 376 91
404T57 476Q57 507 73 528T117 562T182 581T263 587Q271 587 277 587T292 586Q294 609 285 620T237 631Q192 631 157 623T101 606L78 672ZM222 457Q240 457 251 460T271 469T283 480T292 492V524Q283 525 274 525T257 526Q224 526 204 518T183 489Q183 474 194
466T222 457Z" />
<glyph unicode="&#xab;" glyph-name="guillemotleft" horiz-adv-x="531" d="M243 261L411 476L485 413L400 299L350 260L400 225L491 112L417 49L243 261ZM32 259L206 489L289 419L198 301L146 260L198 224L296 108L212 38L32 259Z" />
<glyph unicode="&#xac;" glyph-name="logicalnot" horiz-adv-x="571" d="M49 416H530V183H405V296H49V416Z" />
<glyph unicode="&#xad;" glyph-name="uni00AD" horiz-adv-x="391" d="M59 350H332V226H59V350Z" />
<glyph unicode="&#xae;" glyph-name="registered" horiz-adv-x="735" d="M64 435Q64 507 88 563T154 659T251 718T368 738Q431 738 486 718T582 659T647 564T671 435Q671 363 647 307T581 211T485 152T368 132Q305 132 250 152T153 211T88 306T64 435ZM167 435Q167
384 183 346T227 282T291 244T368 231Q410 231 446 243T510 281T552 344T568 435Q568 486 552 524T509 588T445 626T368 639Q323 639 286 625T223 585T182 520T167 435ZM258 574Q275 579 306 582T364 585Q409 585 441 566T474 501Q474 468 452 450T398 429L427
414L496 298H431L364 409L313 425V298H258V574ZM353 537Q342 537 331 537T313 533V457H350Q381 457 398 466T415 499Q415 517 399 527T353 537Z" />
<glyph unicode="&#xaf;" glyph-name="macron" horiz-adv-x="471" d="M60 679H411V584H60V679Z" />
<glyph unicode="0;" glyph-name="degree" horiz-adv-x="475" d="M58 545Q58 582 72 613T111 666T168 701T236 714Q273 714 305 703T363 669T402 616T417 545Q417 506 403 476T363 424T306 391T236 379Q201 379 169 390T112 423T73 475T58 545ZM166 546Q166
515 187 499T237 482Q266 482 287 498T309 546Q309 577 288 594T237 611Q208 611 187 594T166 546Z" />
<glyph unicode="1;" glyph-name="plusminus" horiz-adv-x="571" d="M47 528H223V702H348V528H524V408H348V298H223V408H47V528ZM47 253H524V133H47V253Z" />
<glyph unicode="2;" glyph-name="twosuperior" horiz-adv-x="442" d="M376 677Q376 648 368 624T345 580T312 542T270 506L218 482V477L282 489H393V380H54V458Q82 475 116 498T180 547T230 600T250 652Q250 678 235 687T189 697Q160 697 134 688T88 667L50
765Q88 786 131 796T214 807Q291 807 333 774T376 677Z" />
<glyph unicode="3;" glyph-name="threesuperior" horiz-adv-x="442" d="M181 474Q230 474 249 486T269 521Q269 542 249 554T172 567H129V607L206 681L253 705L190 699H65V800H373V733L279 647L242 629V624L274 627Q331 625 363 596T395 512Q395 476 380 450T337
406T275 381T199 373Q157 373 121 380T59 398L84 493Q129 474 181 474Z" />
<glyph unicode="4;" glyph-name="acute" horiz-adv-x="337" d="M139 729H281V700L155 571H79L139 729Z" />
<glyph unicode="5;" glyph-name="mu" horiz-adv-x="617" d="M196 500V234Q196 171 219 138T297 105Q348 105 378 129T422 199V500H562V163Q562 122 565 81T579 0H475L440 79H436Q417 43 381 16T287 -12Q245 -12 223 2T179 40H174L197 -67V-200H56V500H196Z" />
<glyph unicode="6;" glyph-name="paragraph" horiz-adv-x="573" d="M393 700H509V-130H393V700ZM192 292Q156 292 126 309T74 355T40 421T28 497Q28 536 42 572T82 637T145 683T227 700H308V-130H192V292Z" />
<glyph unicode="7;" glyph-name="periodcentered" horiz-adv-x="271" d="M48 318Q48 355 72 376T135 397Q175 397 199 376T223 318Q223 283 199 261T135 239Q96 239 72 261T48 318Z" />
<glyph unicode="8;" glyph-name="cedilla" horiz-adv-x="367" d="M199 -52Q247 -55 274 -73T302 -129Q302 -153 290 -170T255 -200T204 -218T141 -224Q123 -224 105 -223T68 -218L78 -171Q109 -173 128 -171T157 -164T171 -153T175 -138Q175 -121 152 -112T78
-101L140 -6H227L199 -52Z" />
<glyph unicode="9;" glyph-name="onesuperior" horiz-adv-x="442" d="M75 488H182V638L192 686L159 653L97 612L42 695L213 807H306V488H402V380H75V488Z" />
<glyph unicode="a;" glyph-name="ordmasculine" horiz-adv-x="476" d="M48 542Q48 587 62 619T101 671T161 702T238 712Q279 712 314 703T374 674T414 621T428 542Q428 495 414 463T375 411T314 381T238 372Q196 372 162 381T102 410T62 463T48 542ZM175 542Q175
503 189 481T238 459Q272 459 286 478T300 542Q300 587 286 606T238 625Q204 625 190 606T175 542Z" />
<glyph unicode="b;" glyph-name="guillemotright" horiz-adv-x="530" d="M288 266L120 51L45 115L130 228L180 267L130 302L40 415L113 478L288 266ZM499 268L325 38L242 109L333 226L385 267L333 303L235 419L318 489L499 268Z" />
<glyph unicode="c;" glyph-name="onequarter" horiz-adv-x="949" d="M658 715L749 658L281 -14L191 47L658 715ZM899 75H816V0H708V75H482V147L720 428H816V169H899V75ZM708 250L713 304H708L685 256L634 193L595 160L653 169H708V250ZM180 538L190 585L157
553L94 512L40 595L211 707H304V280H180V538Z" />
<glyph unicode="d;" glyph-name="onehalf" horiz-adv-x="975" d="M658 715L749 658L281 -14L191 47L658 715ZM908 297Q908 268 900 244T877 200T844 162T802 126L750 102V97L814 109H925V0H586V78Q614 95 648 118T712 167T762 220T782 272Q782 298 767 307T721
317Q692 317 666 308T620 287L582 385Q620 406 663 416T746 427Q823 427 865 394T908 297ZM180 538L190 585L157 553L94 512L40 595L211 707H304V280H180V538Z" />
<glyph unicode="e;" glyph-name="threequarters" horiz-adv-x="977" d="M686 715L777 658L309 -14L219 47L686 715ZM927 75H844V0H736V75H510V147L748 428H844V169H927V75ZM736 250L741 304H736L713 256L662 193L623 160L681 169H736V250ZM174 374Q223 374
242 386T262 421Q262 442 242 454T165 467H122V507L199 581L246 605L183 599H58V700H366V633L272 547L235 529V524L267 527Q324 525 356 496T388 412Q388 376 373 350T330 306T268 281T192 273Q150 273 114 280T52 298L77 393Q122 374 174 374Z" />
<glyph unicode="f;" glyph-name="questiondown" horiz-adv-x="491" d="M344 290Q350 236 339 199T309 137T265 93T220 58T184 23T169 -21Q169 -56 190 -75T265 -95Q282 -95 302 -91T342 -80T380 -64T413 -45L467 -148Q426 -175 373 -193T242 -212Q140 -212
83 -167T25 -43Q25 11 39 44T76 101T124 140T172 176T209 221T224 290H344ZM193 433Q193 470 217 491T280 512Q320 512 344 491T368 433Q368 398 344 376T280 354Q241 354 217 376T193 433Z" />
<glyph unicode="0;" glyph-name="Agrave" horiz-adv-x="658" d="M441 149H205L148 0H0L274 705H383L658 0H501L441 149ZM246 266H406L352 412L328 523H323L299 411L246 266ZM414 752H300L128 839V870H301L414 752Z" />
<glyph unicode="1;" glyph-name="Aacute" horiz-adv-x="658" d="M441 149H205L148 0H0L274 705H383L658 0H501L441 149ZM246 266H406L352 412L328 523H323L299 411L246 266ZM361 870H533V839L359 752H247L361 870Z" />
<glyph unicode="2;" glyph-name="Acircumflex" horiz-adv-x="658" d="M441 149H205L148 0H0L274 705H383L658 0H501L441 149ZM246 266H406L352 412L328 523H323L299 411L246 266ZM279 870H384L522 778V737H414L352 777L330 811L306 778L240 737H134V779L279 870Z" />
<glyph unicode="3;" glyph-name="Atilde" horiz-adv-x="658" d="M441 149H205L148 0H0L274 705H383L658 0H501L441 149ZM246 266H406L352 412L328 523H323L299 411L246 266ZM125 804Q158 839 189 852T252 865Q276 865 300 860T346 847T390 835T432 829Q449
829 465 834T496 853L521 781Q492 755 464 745T409 735Q385 735 362 740T316 753T272 765T229 771Q208 771 188 764T148 736L125 804Z" />
<glyph unicode="4;" glyph-name="Adieresis" horiz-adv-x="658" d="M441 149H205L148 0H0L274 705H383L658 0H501L441 149ZM246 266H406L352 412L328 523H323L299 411L246 266ZM136 798Q136 825 155 841T219 858Q261 858 280 842T300 798Q300 772 281 757T219
741Q175 741 156 756T136 798ZM369 798Q369 825 388 841T450 858Q494 858 513 842T533 798Q533 772 514 757T450 741Q408 741 389 756T369 798Z" />
<glyph unicode="5;" glyph-name="Aring" horiz-adv-x="658" d="M191 772Q191 790 197 806T218 835T261 855T329 862Q406 862 437 838T468 772Q468 743 451 721T389 689L658 0H501L441 149H205L148 0H0L268 689Q225 698 208 720T191 772ZM246 266H406L352 412L328
523H323L299 411L246 266ZM281 772Q281 758 292 750T329 742Q357 742 367 749T378 772Q378 788 367 796T329 804Q281 804 281 772Z" />
<glyph unicode="6;" glyph-name="AE" horiz-adv-x="935" d="M427 530L388 424L301 285H434V530H427ZM434 165H232L126 0H-32L429 700H885V570H582V418H858V288H582V130H890V0H434V165Z" />
<glyph unicode="7;" glyph-name="Ccedilla" horiz-adv-x="607" d="M579 30Q552 11 511 1T424 -12L400 -52Q448 -55 475 -73T503 -129Q503 -153 491 -170T456 -200T405 -218T342 -224Q324 -224 306 -223T269 -218L279 -171Q310 -173 329 -171T358 -164T372
-153T376 -138Q376 -121 353 -112T279 -101L337 -11Q277 -5 223 18T129 85T64 194T40 350Q40 452 72 521T154 633T265 695T385 714Q450 714 494 706T568 687L539 563Q514 574 481 579T396 584Q351 584 315 570T252 526T212 453T197 350Q197 298 210 255T249 181T315
133T408 116Q457 116 490 125T550 148L579 30Z" />
<glyph unicode="8;" glyph-name="Egrave" horiz-adv-x="566" d="M65 700H516V570H213V418H488V288H213V130H521V0H65V700ZM383 752H269L97 839V870H270L383 752Z" />
<glyph unicode="9;" glyph-name="Eacute" horiz-adv-x="566" d="M65 700H516V570H213V418H488V288H213V130H521V0H65V700ZM319 870H491V839L317 752H205L319 870Z" />
<glyph unicode="a;" glyph-name="Ecircumflex" horiz-adv-x="566" d="M65 700H516V570H213V418H488V288H213V130H521V0H65V700ZM238 870H343L481 778V737H373L311 777L289 811L265 778L199 737H93V779L238 870Z" />
<glyph unicode="b;" glyph-name="Edieresis" horiz-adv-x="566" d="M65 700H516V570H213V418H488V288H213V130H521V0H65V700ZM91 798Q91 825 110 841T174 858Q216 858 235 842T255 798Q255 772 236 757T174 741Q130 741 111 756T91 798ZM324 798Q324 825 343
841T405 858Q449 858 468 842T488 798Q488 772 469 757T405 741Q363 741 344 756T324 798Z" />
<glyph unicode="c;" glyph-name="Igrave" horiz-adv-x="388" d="M120 620H40V700H348V620H268V80H348V0H40V80H120V620ZM555 752H441L269 839V870H442L555 752Z" />
<glyph unicode="d;" glyph-name="Iacute" horiz-adv-x="388" d="M120 620H40V700H348V620H268V80H348V0H40V80H120V620ZM209 870H381V839L207 752H95L209 870Z" />
<glyph unicode="e;" glyph-name="Icircumflex" horiz-adv-x="388" d="M120 620H40V700H348V620H268V80H348V0H40V80H120V620ZM402 870H507L645 778V737H537L475 777L453 811L429 778L363 737H257V779L402 870Z" />
<glyph unicode="f;" glyph-name="Idieresis" horiz-adv-x="388" d="M120 620H40V700H348V620H268V80H348V0H40V80H120V620ZM253 798Q253 825 272 841T336 858Q378 858 397 842T417 798Q417 772 398 757T336 741Q292 741 273 756T253 798ZM486 798Q486 825
505 841T567 858Q611 858 630 842T650 798Q650 772 631 757T567 741Q525 741 506 756T486 798Z" />
<glyph unicode="&#xd0;" glyph-name="Eth" horiz-adv-x="714" d="M-7 412H77V700Q99 703 127 705T186 708T246 709T298 710Q398 710 469 684T586 610T653 498T674 356Q674 286 654 220T587 103T467 20T285 -11Q268 -11 239 -10T178 -8T119 -5T77 -1V295H-7V412ZM225
412H360V295H225V123Q230 122 240 122T262 121T284 120T300 119Q364 119 406 139T472 192T507 267T517 354Q517 391 508 431T476 504T412 558T309 580Q286 580 262 580T225 577V412Z" />
<glyph unicode="&#xd1;" glyph-name="Ntilde" horiz-adv-x="713" d="M254 365L194 470H189L205 364V0H65V705H172L461 332L518 230H524L508 333V700H648V-5H541L254 365ZM150 804Q183 839 214 852T277 865Q301 865 325 860T371 847T415 835T457 829Q474 829 490
834T521 853L546 781Q517 755 489 745T434 735Q410 735 387 740T341 753T297 765T254 771Q233 771 213 764T173 736L150 804Z" />
<glyph unicode="&#xd2;" glyph-name="Ograve" horiz-adv-x="727" d="M40 350Q40 436 62 504T125 618T227 689T363 714Q444 714 504 688T605 613T666 498T687 350Q687 264 665 196T600 82T498 11T363 -14Q282 -14 222 12T121 87T60 202T40 350ZM197 350Q197 298
207 255T237 181T288 133T363 116Q442 116 486 170T530 350Q530 400 521 443T492 517T440 566T363 584Q285 584 241 528T197 350ZM446 752H332L160 839V870H333L446 752Z" />
<glyph unicode="&#xd3;" glyph-name="Oacute" horiz-adv-x="727" d="M40 350Q40 436 62 504T125 618T227 689T363 714Q444 714 504 688T605 613T666 498T687 350Q687 264 665 196T600 82T498 11T363 -14Q282 -14 222 12T121 87T60 202T40 350ZM197 350Q197 298
207 255T237 181T288 133T363 116Q442 116 486 170T530 350Q530 400 521 443T492 517T440 566T363 584Q285 584 241 528T197 350ZM396 870H568V839L394 752H282L396 870Z" />
<glyph unicode="&#xd4;" glyph-name="Ocircumflex" horiz-adv-x="727" d="M40 350Q40 436 62 504T125 618T227 689T363 714Q444 714 504 688T605 613T666 498T687 350Q687 264 665 196T600 82T498 11T363 -14Q282 -14 222 12T121 87T60 202T40 350ZM197 350Q197
298 207 255T237 181T288 133T363 116Q442 116 486 170T530 350Q530 400 521 443T492 517T440 566T363 584Q285 584 241 528T197 350ZM312 870H417L555 778V737H447L385 777L363 811L339 778L273 737H167V779L312 870Z" />
<glyph unicode="&#xd5;" glyph-name="Otilde" horiz-adv-x="727" d="M40 350Q40 436 62 504T125 618T227 689T363 714Q444 714 504 688T605 613T666 498T687 350Q687 264 665 196T600 82T498 11T363 -14Q282 -14 222 12T121 87T60 202T40 350ZM197 350Q197 298
207 255T237 181T288 133T363 116Q442 116 486 170T530 350Q530 400 521 443T492 517T440 566T363 584Q285 584 241 528T197 350ZM164 804Q197 839 228 852T291 865Q315 865 339 860T385 847T429 835T471 829Q488 829 504 834T535 853L560 781Q531 755 503 745T448
735Q424 735 401 740T355 753T311 765T268 771Q247 771 227 764T187 736L164 804Z" />
<glyph unicode="&#xd6;" glyph-name="Odieresis" horiz-adv-x="727" d="M40 350Q40 436 62 504T125 618T227 689T363 714Q444 714 504 688T605 613T666 498T687 350Q687 264 665 196T600 82T498 11T363 -14Q282 -14 222 12T121 87T60 202T40 350ZM197 350Q197
298 207 255T237 181T288 133T363 116Q442 116 486 170T530 350Q530 400 521 443T492 517T440 566T363 584Q285 584 241 528T197 350ZM164 798Q164 825 183 841T247 858Q289 858 308 842T328 798Q328 772 309 757T247 741Q203 741 184 756T164 798ZM397 798Q397
825 416 841T478 858Q522 858 541 842T561 798Q561 772 542 757T478 741Q436 741 417 756T397 798Z" />
<glyph unicode="&#xd7;" glyph-name="multiply" horiz-adv-x="571" d="M145 554L286 420L426 554L509 465L373 339L509 210L426 122L286 256L144 121L62 209L199 339L63 465L145 554Z" />
<glyph unicode="&#xd8;" glyph-name="Oslash" horiz-adv-x="727" d="M40 350Q40 436 62 504T125 618T227 689T363 714Q456 714 525 677L551 715L646 654L612 605Q650 557 668 493T687 350Q687 264 665 196T600 82T498 11T363 -14Q317 -14 279 -6T207 19L185 -14L92
46L120 87Q79 135 60 202T40 350ZM446 562Q411 584 363 584Q285 584 241 528T197 350Q197 277 215 225L446 562ZM287 134Q318 116 363 116Q442 116 486 170T530 350Q530 414 515 464L287 134Z" />
<glyph unicode="&#xd9;" glyph-name="Ugrave" horiz-adv-x="679" d="M478 700H618V251Q618 183 599 133T544 51T459 4T350 -12Q209 -12 135 49T61 234V700H209V261Q209 181 244 150T348 118Q414 118 446 151T478 261V700ZM428 752H314L142 839V870H315L428 752Z" />
<glyph unicode="&#xda;" glyph-name="Uacute" horiz-adv-x="679" d="M478 700H618V251Q618 183 599 133T544 51T459 4T350 -12Q209 -12 135 49T61 234V700H209V261Q209 181 244 150T348 118Q414 118 446 151T478 261V700ZM396 870H568V839L394 752H282L396 870Z" />
<glyph unicode="&#xdb;" glyph-name="Ucircumflex" horiz-adv-x="679" d="M478 700H618V251Q618 183 599 133T544 51T459 4T350 -12Q209 -12 135 49T61 234V700H209V261Q209 181 244 150T348 118Q414 118 446 151T478 261V700ZM297 870H402L540 778V737H432L370
777L348 811L324 778L258 737H152V779L297 870Z" />
<glyph unicode="&#xdc;" glyph-name="Udieresis" horiz-adv-x="679" d="M478 700H618V251Q618 183 599 133T544 51T459 4T350 -12Q209 -12 135 49T61 234V700H209V261Q209 181 244 150T348 118Q414 118 446 151T478 261V700ZM144 798Q144 825 163 841T227 858Q269
858 288 842T308 798Q308 772 289 757T227 741Q183 741 164 756T144 798ZM377 798Q377 825 396 841T458 858Q502 858 521 842T541 798Q541 772 522 757T458 741Q416 741 397 756T377 798Z" />
<glyph unicode="&#xdd;" glyph-name="Yacute" horiz-adv-x="644" d="M248 258L-2 700H174L314 443L330 368H335L352 445L487 700H646L396 259V0H248V258ZM354 870H526V839L352 752H240L354 870Z" />
<glyph unicode="&#xde;" glyph-name="Thorn" horiz-adv-x="620" d="M65 700H213V628Q228 629 243 629T275 630Q344 630 402 622T503 588T570 517T594 396Q594 330 572 284T509 208T416 166T299 152Q294 152 282 152T257 152T231 154T213 156V0H65V700ZM213 287Q217
286 226 285T245 284T263 283T277 282Q312 282 341 286T392 303T425 338T437 399Q437 431 427 450T397 481T349 496T285 500Q264 500 245 499T213 495V287Z" />
<glyph unicode="&#xdf;" glyph-name="germandbls" horiz-adv-x="693" d="M420 547Q420 557 417 566T404 581T377 591T330 595Q277 595 257 562T236 475V0H96V408H17V525H96Q96 622 160 663T342 705Q401 705 442 695T510 666T549 621T561 562Q561 517 545 493T508
451T471 418T454 374Q454 355 469 344T508 322T557 301T607 273T645 229T661 161Q661 129 651 98T619 41T559 1T468 -15Q413 -15 367 -2T289 31L330 130Q343 123 355 117T382 106T415 98T457 95Q489 95 505 110T521 152Q521 177 506 191T467 215T418 233T368 256T330
294T314 358Q314 401 330 428T367 474T403 509T420 547Z" />
<glyph unicode="&#xe0;" glyph-name="agrave" horiz-adv-x="579" d="M67 489Q112 509 177 522T313 535Q368 535 405 522T465 485T496 426T506 349Q506 298 502 248T498 142Q498 104 503 68T519 -1H405L382 77H370Q344 42 304 17T201 -8Q163 -8 132 3T78 34T43
83T30 144Q30 233 89 278T270 324Q298 324 326 320T365 313Q368 334 368 349Q368 387 349 405T278 423Q230 423 185 412T104 383L67 489ZM250 104Q297 104 325 126T366 172V232Q361 234 351 236T328 240T303 243T280 244Q226 244 200 225T174 176Q174 140 194 122T250
104ZM350 571H276L136 699V729H283L350 571Z" />
<glyph unicode="&#xe1;" glyph-name="aacute" horiz-adv-x="579" d="M67 489Q112 509 177 522T313 535Q368 535 405 522T465 485T496 426T506 349Q506 298 502 248T498 142Q498 104 503 68T519 -1H405L382 77H370Q344 42 304 17T201 -8Q163 -8 132 3T78 34T43
83T30 144Q30 233 89 278T270 324Q298 324 326 320T365 313Q368 334 368 349Q368 387 349 405T278 423Q230 423 185 412T104 383L67 489ZM250 104Q297 104 325 126T366 172V232Q361 234 351 236T328 240T303 243T280 244Q226 244 200 225T174 176Q174 140 194 122T250
104ZM287 729H429V700L303 571H227L287 729Z" />
<glyph unicode="&#xe2;" glyph-name="acircumflex" horiz-adv-x="579" d="M67 489Q112 509 177 522T313 535Q368 535 405 522T465 485T496 426T506 349Q506 298 502 248T498 142Q498 104 503 68T519 -1H405L382 77H370Q344 42 304 17T201 -8Q163 -8 132 3T78 34T43
83T30 144Q30 233 89 278T270 324Q298 324 326 320T365 313Q368 334 368 349Q368 387 349 405T278 423Q230 423 185 412T104 383L67 489ZM250 104Q297 104 325 126T366 172V232Q361 234 351 236T328 240T303 243T280 244Q226 244 200 225T174 176Q174 140 194 122T250
104ZM252 752H344L469 564H359L317 633L293 697L268 634L216 564H114L252 752Z" />
<glyph unicode="&#xe3;" glyph-name="atilde" horiz-adv-x="579" d="M67 489Q112 509 177 522T313 535Q368 535 405 522T465 485T496 426T506 349Q506 298 502 248T498 142Q498 104 503 68T519 -1H405L382 77H370Q344 42 304 17T201 -8Q163 -8 132 3T78 34T43
83T30 144Q30 233 89 278T270 324Q298 324 326 320T365 313Q368 334 368 349Q368 387 349 405T278 423Q230 423 185 412T104 383L67 489ZM250 104Q297 104 325 126T366 172V232Q361 234 351 236T328 240T303 243T280 244Q226 244 200 225T174 176Q174 140 194 122T250
104ZM107 677Q140 715 168 730T223 745Q245 745 265 738T306 722T346 706T390 699Q423 699 458 725L475 650Q445 617 418 604T366 590Q343 590 323 597T281 613T239 629T193 637Q176 637 159 632T122 610L107 677Z" />
<glyph unicode="&#xe4;" glyph-name="adieresis" horiz-adv-x="579" d="M67 489Q112 509 177 522T313 535Q368 535 405 522T465 485T496 426T506 349Q506 298 502 248T498 142Q498 104 503 68T519 -1H405L382 77H370Q344 42 304 17T201 -8Q163 -8 132 3T78 34T43
83T30 144Q30 233 89 278T270 324Q298 324 326 320T365 313Q368 334 368 349Q368 387 349 405T278 423Q230 423 185 412T104 383L67 489ZM250 104Q297 104 325 126T366 172V232Q361 234 351 236T328 240T303 243T280 244Q226 244 200 225T174 176Q174 140 194 122T250
104ZM80 657Q80 692 101 713T157 734Q191 734 211 713T232 657Q232 627 212 606T157 585Q123 585 102 606T80 657ZM333 657Q333 692 353 713T408 734Q443 734 463 713T484 657Q484 627 464 606T408 585Q374 585 354 606T333 657Z" />
<glyph unicode="&#xe5;" glyph-name="aring" horiz-adv-x="579" d="M67 489Q112 509 177 522T313 535Q368 535 405 522T465 485T496 426T506 349Q506 298 502 248T498 142Q498 104 503 68T519 -1H405L382 77H370Q344 42 304 17T201 -8Q163 -8 132 3T78 34T43 83T30
144Q30 233 89 278T270 324Q298 324 326 320T365 313Q368 334 368 349Q368 387 349 405T278 423Q230 423 185 412T104 383L67 489ZM250 104Q297 104 325 126T366 172V232Q361 234 351 236T328 240T303 243T280 244Q226 244 200 225T174 176Q174 140 194 122T250
104ZM173 665Q173 707 203 735T294 764Q351 764 383 739T416 665Q416 646 408 629T384 598T345 576T294 568Q236 568 205 595T173 665ZM245 665Q245 648 259 639T294 630Q316 630 330 638T345 665Q345 684 330 693T294 703Q274 703 260 694T245 665Z" />
<glyph unicode="&#xe6;" glyph-name="ae" horiz-adv-x="915" d="M250 104Q297 104 324 125T366 169V232Q355 235 339 239T288 243Q231 243 203 223T174 167Q174 137 195 121T250 104ZM406 83Q376 45 327 19T201 -8Q163 -8 132 3T78 34T43 83T30 144Q30 233 92
278T268 323Q300 323 328 319T365 313Q367 327 367 334T368 348Q368 380 349 401T277 422Q231 422 185 412T104 385L67 483Q111 505 173 520T304 535Q363 535 398 521T460 477Q489 507 535 523T635 540Q677 540 718 530T790 495T841 429T861 325Q861 304 859 280T851
228H500Q505 162 540 129T653 95Q699 95 737 108T796 136L842 47Q825 34 802 23T750 3T690 -10T625 -15Q554 -15 497 7T411 83H406ZM633 429Q570 429 541 396T506 311H731Q736 368 712 398T633 429Z" />
<glyph unicode="&#xe7;" glyph-name="ccedilla" horiz-adv-x="500" d="M468 32Q442 15 407 4T334 -12L310 -52Q358 -55 385 -73T413 -129Q413 -153 401 -170T366 -200T315 -218T252 -224Q234 -224 216 -223T179 -218L189 -171Q220 -173 239 -171T268 -164T282
-153T286 -138Q286 -121 263 -112T189 -101L246 -12Q190 -6 152 16T89 74T53 157T42 262Q42 393 106 466T294 540Q354 540 392 531T461 506L427 394Q401 405 376 410T316 416Q253 416 220 380T186 262Q186 230 194 203T219 154T262 121T323 109Q365 109 389 116T436
137L468 32Z" />
<glyph unicode="&#xe8;" glyph-name="egrave" d="M521 48Q487 22 429 4T303 -15Q168 -15 105 59T42 262Q42 399 113 469T313 540Q355 540 396 530T469 495T520 429T540 326Q540 305 538 280T529 228H179Q184 160 218 128T331 95Q378 95 415 108T473 136L521 48ZM311
430Q249 430 219 397T184 311H410Q414 366 390 398T311 430ZM371 571H297L157 699V729H304L371 571Z" />
<glyph unicode="&#xe9;" glyph-name="eacute" d="M521 48Q487 22 429 4T303 -15Q168 -15 105 59T42 262Q42 399 113 469T313 540Q355 540 396 530T469 495T520 429T540 326Q540 305 538 280T529 228H179Q184 160 218 128T331 95Q378 95 415 108T473 136L521 48ZM311
430Q249 430 219 397T184 311H410Q414 366 390 398T311 430ZM328 729H470V700L344 571H268L328 729Z" />
<glyph unicode="&#xea;" glyph-name="ecircumflex" d="M521 48Q487 22 429 4T303 -15Q168 -15 105 59T42 262Q42 399 113 469T313 540Q355 540 396 530T469 495T520 429T540 326Q540 305 538 280T529 228H179Q184 160 218 128T331 95Q378 95 415 108T473 136L521
48ZM311 430Q249 430 219 397T184 311H410Q414 366 390 398T311 430ZM256 752H348L473 564H363L321 633L297 697L272 634L220 564H118L256 752Z" />
<glyph unicode="&#xeb;" glyph-name="edieresis" d="M521 48Q487 22 429 4T303 -15Q168 -15 105 59T42 262Q42 399 113 469T313 540Q355 540 396 530T469 495T520 429T540 326Q540 305 538 280T529 228H179Q184 160 218 128T331 95Q378 95 415 108T473 136L521
48ZM311 430Q249 430 219 397T184 311H410Q414 366 390 398T311 430ZM94 657Q94 692 115 713T171 734Q205 734 225 713T246 657Q246 627 226 606T171 585Q137 585 116 606T94 657ZM347 657Q347 692 367 713T422 734Q457 734 477 713T498 657Q498 627 478 606T422
585Q388 585 368 606T347 657Z" />
<glyph unicode="&#xec;" glyph-name="igrave" horiz-adv-x="317" d="M89 525H229V0H89V525ZM463 571H389L249 699V729H396L463 571Z" />
<glyph unicode="&#xed;" glyph-name="iacute" horiz-adv-x="317" d="M89 525H229V0H89V525ZM144 729H286V700L160 571H84L144 729Z" />
<glyph unicode="&#xee;" glyph-name="icircumflex" horiz-adv-x="317" d="M89 525H229V0H89V525ZM376 752H468L593 564H483L441 633L417 697L392 634L340 564H238L376 752Z" />
<glyph unicode="&#xef;" glyph-name="idieresis" horiz-adv-x="317" d="M89 525H229V0H89V525ZM213 657Q213 692 234 713T290 734Q324 734 344 713T365 657Q365 627 345 606T290 585Q256 585 235 606T213 657ZM466 657Q466 692 486 713T541 734Q576 734 596 713T617
657Q617 627 597 606T541 585Q507 585 487 606T466 657Z" />
<glyph unicode="&#xf0;" glyph-name="eth" horiz-adv-x="643" d="M250 552L274 617Q254 620 233 620Q199 620 159 612V703Q163 703 176 704T205 707T241 709T278 710Q286 710 293 710T309 708L331 765L395 739L379 697Q427 684 468 657T538 585T584 476T601 326Q601
243 580 180T522 73T432 8T316 -15Q248 -15 197 4T112 58T60 141T42 247Q42 305 61 352T116 433T201 485T309 503Q351 503 393 493T464 459Q453 510 421 544T342 599L316 529L250 552ZM462 347Q435 367 399 376T326 386Q254 386 216 346T177 243Q177 173 217 138T324
102Q356 102 382 115T428 152T458 209T469 284Q469 297 468 315T462 347Z" />
<glyph unicode="&#xf1;" glyph-name="ntilde" horiz-adv-x="638" d="M426 0V288Q426 356 405 386T331 416Q286 416 255 392T211 329Q211 247 211 165T212 0H72V525H182L197 450H212Q238 487 281 513T393 540Q435 540 467 530T521 494T554 425T566 317V0H426ZM134
677Q167 715 195 730T250 745Q272 745 292 738T333 722T373 706T417 699Q450 699 485 725L502 650Q472 617 445 604T393 590Q370 590 350 597T308 613T266 629T220 637Q203 637 186 632T149 610L134 677Z" />
<glyph unicode="&#xf2;" glyph-name="ograve" horiz-adv-x="616" d="M42 262Q42 392 111 466T308 540Q375 540 425 519T508 461T557 373T574 262Q574 198 556 147T504 59T421 4T308 -15Q240 -15 190 6T107 64T58 152T42 262ZM186 262Q186 229 193 200T214 150T252
115T308 102Q430 102 430 262Q430 297 424 326T403 377T365 411T308 423Q251 423 219 385T186 262ZM375 571H301L161 699V729H308L375 571Z" />
<glyph unicode="&#xf3;" glyph-name="oacute" horiz-adv-x="616" d="M42 262Q42 392 111 466T308 540Q375 540 425 519T508 461T557 373T574 262Q574 198 556 147T504 59T421 4T308 -15Q240 -15 190 6T107 64T58 152T42 262ZM186 262Q186 229 193 200T214 150T252
115T308 102Q430 102 430 262Q430 297 424 326T403 377T365 411T308 423Q251 423 219 385T186 262ZM329 729H471V700L345 571H269L329 729Z" />
<glyph unicode="&#xf4;" glyph-name="ocircumflex" horiz-adv-x="616" d="M42 262Q42 392 111 466T308 540Q375 540 425 519T508 461T557 373T574 262Q574 198 556 147T504 59T421 4T308 -15Q240 -15 190 6T107 64T58 152T42 262ZM186 262Q186 229 193 200T214
150T252 115T308 102Q430 102 430 262Q430 297 424 326T403 377T365 411T308 423Q251 423 219 385T186 262ZM268 752H360L485 564H375L333 633L309 697L284 634L232 564H130L268 752Z" />
<glyph unicode="&#xf5;" glyph-name="otilde" horiz-adv-x="616" d="M42 262Q42 392 111 466T308 540Q375 540 425 519T508 461T557 373T574 262Q574 198 556 147T504 59T421 4T308 -15Q240 -15 190 6T107 64T58 152T42 262ZM186 262Q186 229 193 200T214 150T252
115T308 102Q430 102 430 262Q430 297 424 326T403 377T365 411T308 423Q251 423 219 385T186 262ZM126 677Q159 715 187 730T242 745Q264 745 284 738T325 722T365 706T409 699Q442 699 477 725L494 650Q464 617 437 604T385 590Q362 590 342 597T300 613T258
629T212 637Q195 637 178 632T141 610L126 677Z" />
<glyph unicode="&#xf6;" glyph-name="odieresis" horiz-adv-x="616" d="M42 262Q42 392 111 466T308 540Q375 540 425 519T508 461T557 373T574 262Q574 198 556 147T504 59T421 4T308 -15Q240 -15 190 6T107 64T58 152T42 262ZM186 262Q186 229 193 200T214 150T252
115T308 102Q430 102 430 262Q430 297 424 326T403 377T365 411T308 423Q251 423 219 385T186 262ZM108 657Q108 692 129 713T185 734Q219 734 239 713T260 657Q260 627 240 606T185 585Q151 585 130 606T108 657ZM361 657Q361 692 381 713T436 734Q471 734 491
713T512 657Q512 627 492 606T436 585Q402 585 382 606T361 657Z" />
<glyph unicode="&#xf7;" glyph-name="divide" horiz-adv-x="571" d="M47 397H524V277H47V397ZM198 538Q198 575 222 596T285 617Q325 617 349 596T373 538Q373 503 349 481T285 459Q246 459 222 481T198 538ZM198 136Q198 173 222 194T285 215Q325 215 349 194T373
136Q373 101 349 79T285 57Q246 57 222 79T198 136Z" />
<glyph unicode="&#xf8;" glyph-name="oslash" horiz-adv-x="617" d="M42 262Q42 326 60 377T112 465T195 520T308 540Q345 540 376 534T434 516L463 553L547 486L517 451Q546 414 560 367T575 262Q575 198 557 147T505 59T422 4T308 -15Q230 -15 174 13L145 -24L58
43L92 83Q66 118 54 163T42 262ZM243 120Q268 102 308 102Q431 102 431 262Q431 285 427 306T417 344L243 120ZM370 407Q343 423 308 423Q252 423 219 385T186 262Q186 223 197 188L370 407Z" />
<glyph unicode="&#xf9;" glyph-name="ugrave" horiz-adv-x="642" d="M212 525V234Q212 169 230 139T299 109Q343 109 373 132T417 190V525H557V160Q557 118 561 76T574 0H471L444 82H433Q407 40 359 13T249 -15Q206 -15 173 -4T118 32T84 100T72 204V525H212ZM368
571H294L154 699V729H301L368 571Z" />
<glyph unicode="&#xfa;" glyph-name="uacute" horiz-adv-x="642" d="M212 525V234Q212 169 230 139T299 109Q343 109 373 132T417 190V525H557V160Q557 118 561 76T574 0H471L444 82H433Q407 40 359 13T249 -15Q206 -15 173 -4T118 32T84 100T72 204V525H212ZM321
729H463V700L337 571H261L321 729Z" />
<glyph unicode="&#xfb;" glyph-name="ucircumflex" horiz-adv-x="642" d="M212 525V234Q212 169 230 139T299 109Q343 109 373 132T417 190V525H557V160Q557 118 561 76T574 0H471L444 82H433Q407 40 359 13T249 -15Q206 -15 173 -4T118 32T84 100T72 204V525H212ZM278
752H370L495 564H385L343 633L319 697L294 634L242 564H140L278 752Z" />
<glyph unicode="&#xfc;" glyph-name="udieresis" horiz-adv-x="642" d="M212 525V234Q212 169 230 139T299 109Q343 109 373 132T417 190V525H557V160Q557 118 561 76T574 0H471L444 82H433Q407 40 359 13T249 -15Q206 -15 173 -4T118 32T84 100T72 204V525H212ZM114
657Q114 692 135 713T191 734Q225 734 245 713T266 657Q266 627 246 606T191 585Q157 585 136 606T114 657ZM367 657Q367 692 387 713T442 734Q477 734 497 713T518 657Q518 627 498 606T442 585Q408 585 388 606T367 657Z" />
<glyph unicode="&#xfd;" glyph-name="yacute" horiz-adv-x="541" d="M264 234L286 150H296L315 234L404 525H547L373 50Q351 -9 332 -56T289 -136T238 -186T170 -204Q144 -204 121 -200T80 -186L109 -78Q124 -83 140 -83Q154 -83 167 -80T191 -69T211 -45T228
-3L-12 525H157L264 234ZM300 729H442V700L316 571H240L300 729Z" />
<glyph unicode="&#xfe;" glyph-name="thorn" horiz-adv-x="623" d="M72 700H212V477H224Q249 504 282 522T369 540Q475 540 528 478T581 276Q581 209 564 155T515 64T434 6T322 -15Q287 -15 263 -9T212 9V-200H72V700ZM326 423Q240 423 212 334V133Q229 118 250
110T303 102Q371 102 404 144T437 280Q437 347 412 385T326 423Z" />
<glyph unicode="&#xff;" glyph-name="ydieresis" horiz-adv-x="541" d="M264 234L286 150H296L315 234L404 525H547L373 50Q351 -9 332 -56T289 -136T238 -186T170 -204Q144 -204 121 -200T80 -186L109 -78Q124 -83 140 -83Q154 -83 167 -80T191 -69T211 -45T228
-3L-12 525H157L264 234ZM76 657Q76 692 97 713T153 734Q187 734 207 713T228 657Q228 627 208 606T153 585Q119 585 98 606T76 657ZM329 657Q329 692 349 713T404 734Q439 734 459 713T480 657Q480 627 460 606T404 585Q370 585 350 606T329 657Z" />
</font>
</defs>
</svg>
